<svg xmlns="http://www.w3.org/2000/svg" viewBox="0 0 160.92 220.37" role="img" aria-label="FACOP">
  <!-- Logo oficial de FACOP, extraído del manual de marca (octubre 2021, pág. 16). -->
  <path d="M38.02 140.96C30.71 132.75 30.34 122.71 32.43 116.04L32.49 115.88L69.81 22.62C70.85 20.01 71.27 17.36 71.05 14.74L70.67 10.14L69.49 10.45C48.44 16.03 23.29 22.69 22.99 22.75C14.26 24.6 8.16 32.15 8.16 41.11L8.16 139.19C8.16 143.72 9.8 148.1 12.78 151.52C13.53 152.37 20.32 158.89 26.73 164.97L69.14 207.17C69.84 207.8 70.69 208.55 70.88 208.7C74.03 210.96 77.92 212.21 81.82 212.21C86.16 212.21 90.3 210.86 93.49 208.42C93.58 208.33 93.97 207.99 94.09 207.87C95.16 206.75 98.57 203.2 103.27 198.32C103.35 198.24 103.46 197.96 103.45 197.59C103.45 197.4 103.37 197.22 103.23 197.1C99.99 194.34 52.88 154.38 52.4 153.98C49.21 151.26 40.76 144.04 38.02 140.96" fill="#832C87"/>
  <path d="M152.76 139.19L152.71 42.35C152.74 41.89 152.76 41.49 152.76 41.11C152.76 40.72 152.74 40.31 152.71 39.85L152.68 39.5C152.06 32.18 147.18 25.86 140.24 23.41C137.32 22.5 83.78 8.44 80.38 8.16C78.53 8.17 76.62 8.46 74.78 9.04L74.68 9.07L72.5 9.97C72.5 9.97 82.76 19.5 87.5 23.41C98.22 32.24 93.69 49.43 93.14 51.36L93.05 51.62C92.2 53.64 72.2 101.2 68.99 111.74C65.65 122.74 73.36 129.58 73.69 129.87L89.7 143.33C89.85 143.46 90.07 143.51 90.27 143.46C90.47 143.41 90.64 143.27 90.71 143.07L99.29 121.63C100.29 118.6 108.9 92.56 112.92 82.51C113.97 79.88 114.4 77.24 114.2 74.65L113.77 69.32L117.88 72.75C121.58 75.83 126.02 79.52 130.61 83.3C141.41 92.2 136.79 109.39 136.23 111.32L136.18 111.47C135.93 112.14 134.95 114.22 132.94 118.5C128.3 128.4 119.64 146.82 117.34 154.38C114 165.37 121.68 172.2 122.01 172.49L124.94 175.02C125.25 175.29 125.5 175.28 125.8 175.02C127.06 173.88 147.02 152.79 148.14 151.51C151.12 148.1 152.76 143.72 152.76 139.19" fill="#832C87"/>
</svg>
